<svg xmlns="http://www.w3.org/2000/svg" viewBox="0 0 512 512">
  <path class="cls-1" d="M202.97,232.39c9.47-7.33,18.88-14.71,28.23-22.12,62.98-49.92,124.37-101.8,186.56-152.68C373.67,21.6,317.36,0,256,0h0c-15.6,0-30.87,1.4-45.7,4.07-1.74,33.68-3.14,67.36-4.08,101.09-1.17,42.41-2.18,84.82-3.26,127.23Z" />
  <path class="cls-1" d="M201.95,271.25c-.24,8.95-.49,17.9-.75,26.85,14.38-3.44,28.86-6.4,43.42-8.77,33.1-5.38,66.93-7.95,100.36-4.28,15.92,1.75,31.73,4.69,47.01,9.55,7.42,2.36,14.7,5.26,21.72,8.61,6.83,3.25,12.94,7.45,19.43,11.28,7.39,4.36,.68,15.88-6.73,11.51-13.97-8.24-31.01-13.4-46.65-17.33-16.22-4.07-32.8-6.11-49.5-6.67-43.8-1.48-87.42,6.1-129.73,18.11-.03,1.1-.06,2.19-.1,3.29-1.1,35.09-2.07,70.18-3.33,105.27-.91,25.26-1.42,50.6-2.51,75.89,19.67,4.84,40.23,7.43,61.4,7.43h0c141.38,0,256-114.61,256-256h0c0-69.49-27.7-132.51-72.65-178.63-73.91,61.29-146.75,123.87-222.73,182.62-4.88,3.77-9.77,7.53-14.67,11.27Z" />
  <path class="cls-1" d="M176.4,290.49c-10.93,8.13-21.93,16.16-33.02,24.08,10.65-3.48,21.38-6.76,32.17-9.78,.28-4.77,.57-9.53,.85-14.29Z" />
  <path class="cls-1" d="M169.23,415.39c1.66-29.07,3.28-58.14,4.96-87.2-13.94,4.57-27.71,9.52-41.26,14.69-33.14,12.64-65.58,27.3-97.37,43.31,29.3,49.5,74.78,88.28,129.18,109.04,.42-6.68,.84-13.36,1.22-20.03,1.11-19.94,2.14-39.88,3.28-59.81Z" />
  <path class="cls-1" d="M182.02,204.01c4.67-65.7,9.87-131.36,14.57-197.06C83.86,33.74,0,135.07,0,256H0c0,36.27,7.56,70.77,21.16,102.03,54.69-32.49,107.1-68.98,157.7-107.21,1-15.61,2.04-31.22,3.15-46.82Z" />
</svg>