<svg xmlns="http://www.w3.org/2000/svg" viewBox="0 0 144 144">
  <path class="cls-1" d="M133.37,0H10.63C4.76,0,0,4.76,0,10.63v122.74c0,5.87,4.76,10.63,10.63,10.63h122.74c5.87,0,10.63-4.76,10.63-10.63V10.63c0-5.87-4.76-10.63-10.63-10.63ZM42.92,122.68H21.27V53.9h21.65V122.68Zm-10.82-78.3c-6.89,0-12.48-5.25-12.48-12.43s5.59-12.43,12.48-12.43,12.48,5.25,12.48,12.43-5.59,12.43-12.48,12.43ZM122.73,122.73h-21.65v-37.56c0-11.08-4.71-14.5-10.79-14.5-6.42,0-12.72,4.83-12.72,14.78v37.29h-21.65V53.95h20.82v9.53h.28c2.09-4.23,9.41-11.46,20.58-11.46,12.08,0,25.13,7.17,25.13,28.17v42.54Z" />
</svg>