<svg xmlns="http://www.w3.org/2000/svg" viewBox="0 0 418.86 420.88">
  <path d="M357.83,61.16C318.46,21.74,266.1,.02,210.31,0,95.35,0,1.79,93.55,1.75,208.54c-.02,36.76,9.59,72.64,27.84,104.26L0,420.88l110.56-29c30.46,16.62,64.76,25.37,99.66,25.38h.09s0,0,0,0c114.94,0,208.51-93.56,208.55-208.55,.02-55.73-21.65-108.12-61.03-147.54ZM210.31,382.04h-.07c-31.1-.01-61.61-8.37-88.23-24.16l-6.33-3.76-65.61,17.21,17.51-63.97-4.12-6.56c-17.35-27.6-26.52-59.5-26.5-92.25,.04-95.57,77.8-173.33,173.42-173.33,46.3,.02,89.82,18.07,122.55,50.84,32.73,32.76,50.74,76.32,50.72,122.63-.04,95.58-77.8,173.34-173.34,173.34Zm95.08-129.82c-5.21-2.61-30.83-15.21-35.61-16.95-4.78-1.74-8.25-2.61-11.72,2.61-3.47,5.22-13.46,16.96-16.5,20.43-3.04,3.48-6.08,3.91-11.29,1.3-5.21-2.61-22-8.11-41.91-25.86-15.49-13.82-25.95-30.88-28.99-36.1-3.04-5.22-.32-8.04,2.28-10.63,2.34-2.34,5.21-6.09,7.82-9.13,2.61-3.04,3.47-5.22,5.21-8.69,1.74-3.48,.87-6.52-.43-9.13-1.3-2.61-11.72-28.26-16.07-38.69-4.23-10.16-8.53-8.78-11.72-8.95-3.04-.15-6.51-.18-9.99-.18s-9.12,1.3-13.9,6.52c-4.78,5.22-18.24,17.83-18.24,43.47s18.67,50.43,21.28,53.91c2.61,3.48,36.75,56.11,89.02,78.69,12.43,5.37,22.14,8.58,29.71,10.98,12.48,3.97,23.84,3.41,32.82,2.07,10.01-1.5,30.83-12.61,35.17-24.78,4.34-12.17,4.34-22.61,3.04-24.78-1.3-2.17-4.78-3.48-9.99-6.09Z" />
</svg>