<svg xmlns="http://www.w3.org/2000/svg" viewBox="0 0 30 13">
  <path d="M7.38,11.85c.07-.01,.15-.02,.26-.02,.13,0,.23,.03,.3,.09,.06,.05,.09,.14,.09,.24s-.03,.18-.08,.24c-.07,.08-.19,.12-.32,.12-.04,0-.08,0-.11,0v.46h-.14v-1.13Zm.14,.55s.07,.01,.11,.01c.17,0,.27-.09,.27-.24s-.1-.22-.25-.22c-.06,0-.11,0-.13,.01v.44Z" />
  <path d="M8.97,11.84v.48h.51v-.48h.14v1.14h-.14v-.54h-.51v.54h-.14v-1.14h.14Z" />
  <path d="M11.39,12.4c0,.39-.22,.6-.49,.6s-.48-.23-.48-.58,.21-.6,.49-.6,.48,.24,.48,.58Zm-.82,.02c0,.24,.12,.46,.34,.46s.34-.21,.34-.47c0-.23-.11-.46-.34-.46s-.34,.23-.34,.48Z" />
  <path d="M12.35,11.96h-.32v-.12h.78v.12h-.32v1.02h-.14v-1.02Z" />
  <path d="M14.42,12.4c0,.39-.22,.6-.49,.6s-.48-.23-.48-.58,.21-.6,.49-.6,.48,.24,.48,.58Zm-.82,.02c0,.24,.12,.46,.34,.46s.34-.21,.34-.47c0-.23-.11-.46-.34-.46s-.34,.23-.34,.48Z" />
  <path d="M16.02,12.93c-.06,.02-.18,.06-.33,.06-.16,0-.29-.04-.4-.15-.09-.09-.15-.25-.15-.43,0-.34,.22-.59,.57-.59,.12,0,.22,.03,.26,.05l-.03,.12c-.06-.03-.13-.05-.23-.05-.26,0-.43,.17-.43,.46s.16,.46,.41,.46c.09,0,.15-.01,.18-.03v-.34h-.21v-.12h.35v.55Z" />
  <path d="M16.85,11.86c.07-.02,.17-.02,.26-.02,.15,0,.24,.03,.31,.09,.05,.05,.08,.13,.08,.22,0,.15-.09,.25-.2,.29h0c.08,.04,.13,.12,.16,.24,.04,.16,.06,.27,.08,.31h-.14s-.04-.13-.07-.27c-.03-.16-.09-.22-.21-.22h-.13v.49h-.14v-1.13Zm.14,.52h.14c.15,0,.24-.09,.24-.22,0-.15-.1-.21-.24-.21-.07,0-.11,0-.14,.01v.42Z" />
  <path d="M18.5,12.62l-.11,.36h-.14l.36-1.14h.17l.36,1.14h-.15l-.11-.36h-.38Zm.35-.12l-.1-.33c-.02-.07-.04-.14-.05-.21h0c-.02,.07-.03,.14-.05,.21l-.1,.33h.32Z" />
  <path d="M19.91,11.85c.07-.01,.15-.02,.26-.02,.13,0,.23,.03,.3,.09,.06,.05,.09,.14,.09,.24s-.03,.18-.08,.24c-.07,.08-.19,.12-.32,.12-.04,0-.08,0-.11,0v.46h-.14v-1.13Zm.14,.55s.07,.01,.11,.01c.17,0,.27-.09,.27-.24s-.1-.22-.25-.22c-.06,0-.11,0-.13,.01v.44Z" />
  <path d="M21.51,11.84v.48h.51v-.48h.14v1.14h-.14v-.54h-.51v.54h-.14v-1.14h.14Z" />
  <path d="M23.24,12.98v-.48l-.33-.66h.16l.15,.32c.04,.09,.07,.16,.11,.24h0c.03-.08,.07-.15,.11-.24l.15-.32h.16l-.36,.66v.49h-.14Z" />
  <path d="M3.99,2.52c-.08,1.23-.18,2.45-.27,3.67-.08,1.09-.14,2.18-.2,3.27-.02,.31-.03,.62-.05,.93s-.04,.63-.05,.95h.47s0-.07-.01-.11c0,0-.01-.07,0-.04,0-.06-.02-.12-.02-.17,0-.04-.01-.09-.02-.13,0-.06-.02-.11-.04-.17-.05-.13-.22-.13-.27,0-.02,.05-.03,.1-.04,.16,0,.05,0,.1-.02,.14-.02,.12-.04,.19-.04,.32s.11,.24,.23,.23c.13,0,.22-.1,.23-.23,.04-.55,.05-1.11,.07-1.67s.03-1.09,.05-1.63c.04-1.13,.06-2.25,.09-3.38,.02-.72,.05-1.43,.1-2.14,0-.13-.19-.13-.2,0h0Z" />
  <path d="M17.07,2.64c-.28-1.07-.87-2.18-2-2.53-.48-.15-1.01-.14-1.5-.04-.58,.11-1.15,.34-1.66,.62-.64,.34-1.25,.75-1.84,1.16-.65,.45-1.28,.93-1.9,1.43-1.24,.99-2.44,2.03-3.69,3.01s-2.48,1.88-3.84,2.63c-.17,.09-.35,.18-.52,.27l.24,.41c.84-.48,1.7-.92,2.6-1.26,.97-.37,2.01-.67,3.05-.63,.26,0,.51,.04,.77,.1s.51,.14,.72,.27c.11,.07,.22-.11,.1-.18-.1-.06-.19-.12-.3-.17s-.22-.1-.34-.13c-.24-.08-.48-.12-.73-.15-.52-.06-1.04-.02-1.55,.07-1.09,.18-2.14,.56-3.14,1-.48,.21-.96,.44-1.43,.68-.12,.06-.15,.22-.09,.33,.07,.12,.21,.14,.33,.09,.35-.16,.68-.36,1.01-.56s.66-.4,.98-.62c.65-.43,1.28-.89,1.9-1.37,1.24-.96,2.42-1.98,3.62-2.97,.59-.49,1.18-.97,1.79-1.43s1.22-.89,1.84-1.31c.5-.34,1.05-.64,1.62-.84,.47-.16,.98-.29,1.48-.25,.46,.03,.9,.19,1.25,.49,.44,.37,.72,.91,.9,1.44,.06,.16,.11,.33,.15,.5,.03,.1,.19,.06,.16-.04h0Z" />
  <path d="M7.67,6.97s0,.03,0,.05c0,0,0,.06,0,.02,0,.04,0,.08,0,.12,0,.07,0,.13-.01,.2,0,.12-.01,.25-.02,.37,0,.21-.02,.42,0,.62,.02,.18,.06,.37,.22,.48s.36,.05,.51-.06c.1-.08,.19-.17,.28-.27,.09-.11,.19-.22,.28-.33,.15-.2,.28-.41,.41-.63,.27-.48,.49-.99,.7-1.5,.11-.28,.21-.56,.3-.85,.08-.26,.14-.51,.22-.77l-.16-.04c-.01,.08-.01,.18-.05,.24-.02,.04-.05,.08-.05,.13s-.01,.09-.02,.13c-.03,.18-.05,.36-.07,.54-.04,.34-.08,.68-.12,1.02-.09,.71-.17,1.43-.24,2.14-.04,.46-.09,.92-.08,1.39,0,.07,.05,.13,.12,.14,.06,0,.14-.03,.15-.1,.07-.42,.1-.83,.14-1.25,.04-.37,.07-.75,.11-1.12,.08-.69,.16-1.38,.23-2.06,.02-.19,.04-.38,.06-.58,0-.11,.03-.23,0-.32-.03-.08-.01-.18,0-.27s-.15-.12-.17-.02c-.03,.22-.09,.44-.15,.65-.07,.24-.14,.48-.22,.71-.17,.5-.38,.99-.65,1.45-.13,.22-.27,.43-.43,.62s-.33,.36-.53,.5c-.08,.06-.17,.11-.27,.16,0,0-.02,0-.02,.01-.02,.01,.05-.02,.01,0-.01,0-.03,0-.04,.01,0,0-.02,0-.02,0-.03,0,.05,0,.02,0,0,0-.01,0-.01,0-.03,0-.01-.02,.02,0,0,0-.01,0-.01,0-.02,0,0-.01,.02,.01,0,0-.02-.01-.03-.01-.02,0,.05,.04,.01,0-.04-.03,.02,.04,0,0,0,0-.01-.03-.02-.04,0,0,.02,.05,.01,.03,0,0,0-.02,0-.02-.01-.03-.02-.07-.02-.1,0-.01,0-.02,0-.03,0-.04,0,0,0,.01,0,0,0-.05,0-.07,0-.05,0-.1,0-.16,0-.12,0-.23,0-.35,0-.27,.02-.53,0-.8,0-.09-.07-.17-.17-.17s-.16,.08-.17,.17h0Z" />
  <path d="M11.2,6.55c-.56,.25-.93,.77-1.35,1.2-.06,.06-.12,.12-.18,.17-.03,.03-.06,.05-.09,.08-.02,.01-.03,.03-.05,.04,0,0,.03-.02,0,0-.02,.02-.04,.03-.06,.05l.3,.3s.06-.06,.09-.09c.01-.01,.02-.02,.04-.03,.02-.01,.08-.05,.02-.01,.03-.01,.05-.04,.07-.05,.01,0,.02-.01,.03-.02,0,0,.01,0,.02-.01,.02,0,0,0-.02,0,.02,0,.03-.01,.05-.02,.03-.01-.04,.02-.02,0,0,0,.01,0,.02,0,.01,0,.02,0,.03-.01,.02,0,.05,0,.07-.02-.05,.02-.03,0,0,0,0,0,.02,0,.03,0,.01,0,.02,0,.03,0,.04,0-.04,0,0,0,.02,0,.04,0,.06,.01,0,0,.02,0,.02,0,.03,0-.04-.02,0,0,.03,.02,.07,.04,.1,.06,0,0,.01,.01,.02,.02-.02-.01-.03-.02,0,0,.02,.01,.03,.03,.05,.04,.03,.03,.06,.06,.09,.08,.12,.13,.25,.26,.42,.31,.22,.07,.45-.03,.63-.17,.16-.13,.3-.29,.43-.45,.1-.12,.19-.24,.27-.37,.11-.15,.22-.31,.3-.47,.01-.02-.02-.05-.04-.03-.11,.13-.21,.27-.32,.4-.09,.1-.18,.21-.27,.31-.07,.08-.15,.16-.23,.24-.06,.06-.13,.12-.19,.16-.06,.04-.11,.08-.17,.11-.01,0-.03,.01-.04,.02,0,0-.05,.02-.01,0-.02,0-.05,.02-.08,.03-.02,0-.04,0-.06,.01,.04,0,0,0,0,0s-.02,0-.03,0c0,0-.02,0-.03,0-.03,0,.03,0,0,0-.02,0-.04,0-.06-.02-.01,0-.03-.02,0,0,0,0-.02,0-.03-.01-.02,0-.03-.02-.05-.03,0,0-.01,0-.02-.01-.02-.02,.03,.02,0,0-.02-.01-.03-.03-.05-.04-.06-.06-.11-.12-.16-.18,0,0-.01-.02-.02-.02h0s.02,.02,0-.01c0,0,0,0,0,0-.01-.02-.03-.03-.04-.05-.03-.03-.05-.06-.08-.09-.07-.07-.16-.12-.25-.16-.28-.09-.58,.07-.8,.22-.09,.06-.14,.19-.08,.29,.06,.09,.19,.15,.29,.08,.32-.22,.56-.55,.81-.84s.5-.58,.81-.76c.07-.04,.1-.14,.06-.21-.05-.08-.14-.09-.21-.06h0Z" />
  <path d="M12.39,7.28c-.03,.16-.03,.33-.03,.49,0,.18,.02,.35,.06,.52,.03,.14,.08,.3,.19,.41,.05,.05,.12,.09,.2,.11,.1,.02,.19,0,.27-.04,.19-.09,.33-.26,.46-.43,.08-.11,.17-.21,.23-.34,.04-.09,.08-.18,.11-.27,.09-.27,.14-.61-.04-.86-.24-.32-.75-.14-1.03,.01-.03,.02-.07,.03-.09,.06s-.05,.06-.07,.09c-.03,.04,.02,.07,.05,.07,.04,0,.08,0,.11-.02,.03-.01,.06-.03,.09-.04,.06-.03,.11-.06,.17-.08,.09-.04,.19-.07,.29-.09,.12-.02,.26-.04,.36,.03,.21,.14,.13,.5,.04,.69-.03,.08-.08,.15-.12,.22-.02,.04-.05,.07-.07,.1-.02,.02-.02,.03-.03,.04-.01,.02-.04,.05-.06,.07-.09,.1-.18,.19-.28,.27-.01,0-.02,.02-.03,.03-.03,.03,.01,0,0,0-.02,.01-.04,.03-.05,.04-.03,.02-.07,.05-.11,.06,0,0-.02,.01-.03,.01,.04,0,.02,0,0,0-.01,0-.03,0-.04,.01-.05,.01,.03,0,0,0-.01,0-.03,0-.04,0h0c.05,0,.05,0-.01,0-.03,0,.05,.01,.02,0,0,0-.02,0-.03,0-.03,0,.04,.03,0,0,0,0,0,0,0,0-.03-.02,.03,.03,.01,.01-.02-.02-.03-.03-.05-.05,.05,.05,.01,.02,0,0,0-.01-.01-.02-.02-.04s-.01-.03-.02-.04c.03,.05,0,.02,0,0-.01-.03-.02-.06-.03-.1,0-.04-.02-.08-.03-.11,0-.02,0-.04-.01-.06,0,0,0-.01,0-.02,0,0,0-.01,0-.02,0-.02,0-.01,0,.02,0-.01,0-.05,0-.06,0-.02,0-.04,0-.06,0-.04,0-.09,0-.13-.01-.17-.01-.34-.04-.51-.03-.14-.26-.14-.29,0h0Z" />
  <path d="M8.46,4.9c-.08,.03-.15,.06-.23,.09-.02,0-.03,.01-.04,.01-.02,0-.03,0-.04,.01,0,0-.05,.02-.03,.01-.05,.02-.09,.04-.13,.06l.06-.02s-.08,.02-.12,.05c-.03,.02-.06,.05-.09,.07-.06,.05-.14,.12-.15,.19s0,.15,.08,.19,.14,.02,.21-.03c.03-.03,.04-.06,.06-.1,.01-.03,.03-.05,.04-.07,.01-.02,.03-.04,.04-.06,0,0,0-.01,.01-.02,.01-.01-.01,.02,0,0,.02-.02,.04-.05,.04-.08l-.03,.05s.06-.07,.09-.11c0,0,0,0,0,0,0,0,0,0,.01-.01,0,0,.02-.02,.03-.03,0-.01,.02-.02,.03-.03,.06-.05,.13-.09,.2-.12,.04-.02,.01-.09-.03-.08h0Z" />
  <path d="M26.44,5.14c-.08,.03-.15,.06-.23,.09-.02,0-.03,.01-.04,.01-.02,0-.03,0-.04,.01,0,0-.05,.02-.03,.01-.05,.02-.09,.04-.13,.06l.06-.02s-.08,.02-.12,.05c-.03,.02-.06,.05-.09,.07-.06,.05-.14,.12-.15,.19s0,.15,.08,.19,.14,.02,.21-.03c.03-.03,.04-.06,.06-.1,.01-.03,.03-.05,.04-.07,.01-.02,.03-.04,.04-.06,0,0,0-.01,.01-.02,.01-.01-.01,.02,0,0,.02-.02,.04-.05,.04-.08l-.03,.05s.06-.07,.09-.11c0,0,0,0,0,0,0,0,0,0,.01-.01,0,0,.02-.02,.03-.03,0-.01,.02-.02,.03-.03,.06-.05,.13-.09,.2-.12,.04-.02,.01-.09-.03-.08h0Z" />
  <path d="M18.08,3.86c-.04,.84-.13,1.68-.2,2.53s-.16,1.68-.23,2.53c-.02,.24-.04,.47-.06,.71,0,.12-.02,.23-.03,.35,0,.12-.03,.25-.02,.37h.44c0-.1,0-.2-.02-.3,0-.05,0-.1-.02-.15-.01-.05-.03-.07-.04-.12-.02-.05-.06-.09-.12-.09-.06,0-.1,.04-.12,.09-.02,.04-.03,.06-.04,.1-.02,.05-.02,.09-.03,.14-.02,.13-.03,.2-.04,.32-.01,.11,.11,.23,.22,.22,.13,0,.21-.1,.22-.22,.01-.1,0-.21,0-.31s0-.22,0-.32c0-.21,0-.42,.02-.63,.01-.42,.03-.84,.04-1.25s.04-.84,.04-1.26,.03-.84,.04-1.26c.01-.48,.02-.95,.04-1.43,0-.05-.08-.05-.09,0h0Z" />
  <path d="M13.04,4.25s0-.03,0-.05c0,0,0-.03,0,0,0-.01,0-.02,0-.03,0-.04,.01-.07,.02-.11,.01-.07,.03-.14,.06-.21s.05-.14,.08-.21c0,.02,0,0,0,0,0,0,0-.02,.01-.02,0-.02,.02-.03,.02-.05,.02-.03,.03-.07,.05-.1,.16-.29,.33-.52,.56-.75,.26-.26,.52-.47,.81-.66,.32-.22,.67-.4,1.02-.57s.74-.31,1.13-.44,.81-.23,1.23-.31,.79-.13,1.22-.16c.4-.03,.8-.03,1.2,0,.1,0,.19,.02,.29,.03,.05,0,.1,.01,.14,.02-.02,0,0,0,.01,0,.01,0,.02,0,.03,0,.02,0,.05,0,.07,.01,.18,.03,.36,.06,.54,.11,.17,.04,.33,.09,.5,.16,.04,.02,.08,.03,.12,.05-.02,0,0,0,0,0,0,0,.02,0,.03,.01,.02,0,.04,.02,.06,.03,.07,.03,.15,.07,.22,.11s.14,.08,.21,.12c.03,.02,.06,.04,.09,.07,.01,.01,.03,.02,.04,.03,.01,0,.03,.02,0,0,0,0,.02,.01,.02,.02,.12,.09,.23,.2,.33,.31,.01,.01,.02,.03,.03,.04,0,0,.01,.01,.02,.02,0,0,.02,.02,0,0-.02-.02,.02,.02,.02,.02,.02,.02,0,0,0,0s.01,.01,.02,.02c.01,.02,.02,.03,.03,.05,.04,.06,.08,.13,.12,.19s.07,.14,.1,.21c0,0-.01-.03,0,0,0,0,0,.02,.01,.03,0,.02,.01,.04,.02,.06,.01,.04,.03,.08,.04,.11,.02,.08,.04,.15,.05,.23,0,.03,0-.02,0,0,0,0,0,.02,0,.03,0,.02,0,.04,0,.06,0,.04,0,.08,0,.12s0,.08,0,.12c0,.02,0,.04,0,.05,0,0,0,.03,0,.03,0,0,0-.04,0,0-.01,.08-.03,.16-.05,.23s-.05,.16-.08,.23c-.02,.04,.01-.03,0,0,0,0,0,.02-.01,.03,0,.02-.02,.04-.03,.06-.02,.04-.04,.08-.06,.12-.09,.16-.19,.31-.3,.46,0,0-.01,.02-.02,.03-.02,.03,.01-.01,0,0-.02,.02-.03,.04-.05,.06-.03,.04-.06,.07-.09,.11-.07,.08-.13,.15-.2,.23-.15,.16-.31,.31-.47,.45-.08,.07-.17,.15-.26,.22-.04,.04-.09,.07-.13,.11-.02,.02-.05,.04-.07,.05-.01,0,.04-.03,0,0-.01,0-.03,.02-.04,.03-.19,.14-.38,.28-.58,.42-.4,.28-.82,.53-1.25,.77s-.85,.45-1.28,.66c-.2,.1-.41,.19-.61,.28-.02,.01-.05,.02-.07,.03-.01,0-.02,0-.03,.01-.03,.01,.05-.02,0,0-.05,.02-.1,.04-.15,.06-.09,.04-.19,.08-.28,.11-.33,.13-.66,.25-1,.34-.13,.04-.25,.07-.38,.09l.27,.35s.04-.05,.05-.08c0,0-.04,.05-.02,.02,0,0,.01-.01,.02-.02,0-.01,.02-.02,.03-.03,.02-.02,.05-.05,.07-.07,.01-.01,.03-.02,.04-.03,.03-.02-.05,.04-.02,.02,0,0,.01-.01,.02-.02,.06-.04,.12-.08,.18-.11,.08-.05,.17-.09,.24-.15l-.09,.05c.15-.05,.3-.1,.46-.13,.08-.02,.17-.04,.26-.05,.04,0,.08-.01,.13-.02,.02,0,.04,0,.06,0,0,0,.02,0,.03,0-.05,0,0,0,0,0,.4-.05,.79-.07,1.19-.08,.81-.02,1.63,.01,2.44,0,.2,0,.39,0,.59-.02,.04,0,.09,0,.13,0,0,0,.02,0,.03,0,.08,0,0,0,.03,0,.03,0,.06,0,.08-.01,.04,0,.08-.01,.12-.02,.04,0,.08-.02,.1-.02,.05,0,.09-.04,.09-.09,0-.05-.04-.1-.09-.09-.03,0-.08,0-.13,0-.04,0-.09,0-.13,0-.1,0-.2,0-.29,0-.22,0-.44,0-.66-.01-.5-.02-1-.04-1.5-.06s-1.02-.02-1.53,0c-.45,.02-.91,.06-1.35,.17-.04,.01-.09,.02-.13,.04-.01,0-.03,0-.04,.01-.02,.01,.03,0,.03,0-.02,0-.04,0-.06,0-.02,0-.04,.01-.06,.02-.1,.03-.19,.06-.28,.11-.16,.09-.3,.21-.41,.36-.02,.03-.04,.06-.06,.09-.05,.08-.04,.19,.02,.27s.15,.11,.25,.09c.3-.06,.6-.15,.89-.25,.4-.14,.79-.3,1.18-.47,.43-.19,.86-.39,1.27-.61,.44-.23,.87-.48,1.29-.74,.21-.13,.41-.27,.62-.41,.05-.04,.1-.07,.15-.11,.02-.02,.05-.03,.07-.05,.02-.01,.1-.07,.06-.04-.03,.02,.01-.01,.02-.02,.11-.08,.21-.16,.32-.25,.35-.28,.68-.58,.97-.92,.26-.3,.5-.63,.66-.99,.14-.32,.24-.67,.21-1.03-.02-.34-.14-.66-.32-.95s-.4-.51-.66-.71-.57-.36-.89-.47c-.34-.13-.69-.21-1.05-.27-.4-.06-.8-.09-1.2-.08-.42,0-.85,.04-1.27,.1s-.85,.14-1.26,.25-.82,.24-1.21,.4-.76,.33-1.12,.53c-.33,.19-.65,.41-.95,.65-.27,.22-.51,.47-.72,.75-.19,.26-.34,.54-.43,.84-.04,.15-.07,.3-.09,.45,0,.06,.05,.11,.11,.11,.06,0,.1-.05,.11-.11h0Z" />
  <path d="M22.63,7.36c-.04,.16-.04,.34-.04,.51,0,.14,.02,.28,.05,.41,.04,.19,.13,.39,.3,.5,.34,.22,.73-.1,.93-.35,.09-.11,.17-.23,.24-.35,.08-.14,.13-.28,.2-.41l-.23-.03c.08,.33,.27,.75,.68,.71,.31-.03,.58-.28,.79-.5,.11-.12,.22-.24,.31-.37l-.23-.06c-.02,.28-.03,.57,.02,.84,.03,.15,.08,.32,.2,.42,.27,.23,.61-.09,.78-.29,.19-.22,.36-.46,.47-.73,.03-.08-.09-.16-.15-.09-.15,.18-.28,.39-.42,.57-.06,.07-.12,.14-.18,.21-.03,.03-.06,.05-.09,.08,0,0-.01,.01-.02,.02-.01,.01,.02-.02,0,0-.01,.01-.03,.02-.04,.03-.02,.02-.05,.03-.08,.04,.03-.02,0,0-.01,0-.01,0-.03,0-.04,0-.02,0,.03,0,0,0,0,0-.01,0-.02,0-.02,0-.03-.01,0,0,0,0-.02,0-.03,0-.02,0,.02,.02,0,0,0,0-.01,0-.02,0,0,0-.01,0-.02,0,.03,.01,.01,.01,0,0,0,0-.02-.02-.02-.02-.02-.02,.01,.02,0,0,0,0,0,0-.01-.02,0-.01-.02-.03-.02-.04,0,0,0-.02-.01-.02,.01,.03,0,0,0,0,0-.02-.01-.03-.02-.05-.01-.04-.02-.08-.03-.12-.01-.06-.01-.08-.02-.15,0-.06-.01-.13-.01-.19,0-.16,0-.33,0-.49,0-.13-.17-.16-.23-.06-.07,.11-.12,.19-.21,.28-.09,.11-.2,.21-.31,.3,0,0-.01,.01-.03,.02-.01,0-.02,.02-.04,.03-.03,.02-.06,.04-.09,.06-.03,.02-.06,.03-.08,.04,.02,0-.02,0-.03,.01-.02,0-.03,.01-.05,.01-.01,0-.03,0-.04,0-.03,0,.01,0-.02,0-.01,0-.03,0-.04,0,0,0-.06,0-.03,0-.03,0-.05-.01-.08-.02,.02,0,0,0-.01,0s-.04-.03-.04-.02c.01,.01-.01,0-.01,0,0,0-.02-.01-.02-.02-.01-.01-.03-.03-.04-.04,.01,.01,0,0,0,0,0-.01-.01-.02-.02-.03-.01-.02-.02-.04-.04-.06-.05-.1-.08-.21-.1-.33-.02-.1-.18-.12-.23-.03-.06,.12-.14,.22-.22,.33-.01,.02-.03,.04-.05,.06,.02-.03,0,.01-.01,.01,0,.01-.05,.07-.03,.03-.03,.04-.07,.09-.1,.13-.06,.07-.13,.14-.2,.2-.01,.01-.03,.02-.04,.04-.02,.02-.01,.03,0,0,0,0-.02,.01-.02,.02-.03,.02-.06,.04-.1,.06-.01,0-.03,.01-.05,.02,0,0,.05-.02,.02-.01,0,0-.02,0-.02,0-.01,0-.03,0-.04,.01,0,0-.01,0-.02,0-.04,0,.05,0,.02,0-.01,0-.03,0-.04,0-.03,0-.03-.02,.01,0-.01,0-.03,0-.04,0-.05-.01,.04,.03,0,0-.01,0-.02-.01-.03-.02-.04-.02,.04,.04,0,0-.01-.01-.02-.02-.03-.03-.01-.01-.02-.04,.01,.02,0,0-.01-.02-.02-.02-.02-.03-.03-.07-.05-.09,0,0,.02,.05,0,.02,0-.01,0-.02-.01-.03,0-.03-.02-.05-.02-.08-.01-.05-.03-.11-.04-.17,0,0,0-.02,0-.03,0,.03,0,.03,0,.01,0-.01,0-.02,0-.03,0-.04,0-.07,0-.11-.01-.18,0-.35-.03-.53-.01-.08-.1-.13-.17-.13-.08,0-.15,.06-.17,.13h0Z" />
  <path d="M26.85,8c.1-.17,.2-.33,.3-.5,.05-.08,.1-.16,.15-.25,.03-.04,.05-.09,.09-.12,.04-.04,.09-.07,.11-.12l-.3-.13c-.06,.16-.13,.33-.19,.47-.08,.19-.14,.32-.21,.5-.15,.34-.29,.69-.39,1.04-.04,.14,.08,.32,.23,.3s.3-.02,.45-.02c.03,0,.06,0,.09,0,.03,0,.07,.01,.1,0h-.04s.04,0,.06,0c0,0,.01,0,.02,0s.01,0,.02,0c.04,0-.05,0-.02,0,.03,0,.06,0,.09,.02,.06,.01,.11,.02,.17,.04,.02,0,.05,.02,.07,.03,0,0,.01,0,.02,0,.03,.01-.02-.01-.02-.01,.01,0,.03,.01,.04,.02,.05,.02,.09,.05,.13,.07,.02,.01,.04,.02,.06,.04,.01,0,.02,.01,.03,.02,.01,0,.03,.03,.02,0h-.01s.03,.01,.04,.02c0,0-.04-.03-.02-.01,0,0,.02,.01,.03,.02,.02,.02,.04,.03,.06,.05,.01,.01,.02,.02,.04,.03-.04-.03-.03-.02-.02-.01,0,0,.02,.02,.02,.02,.02,.02,.03,.04,.05,.06,.03,.03-.02-.03,0,0,0,0,.01,.02,.02,.03,.01,.02,.03,.04,.04,.06,.03,.04,.05,.08,.07,.12,0,.02,.02,.04,.03,.06-.02-.05,0,0,0,.01-.02-.04,0-.02,0-.01,0,.01,0,.03,.01,.04,.02,.05,.03,.09,.04,.14s.02,.09,.03,.14c0,.02,0-.03,0,0,0,.01,0,.02,0,.03,0,.03,0,.05,0,.08,0,.1,0,.19,0,.29,0,0,0,.01,0,.02,0,0,0-.03,0,0,0,.01,0,.02,0,.03,0,.03,0,.05-.01,.08,0,.05-.02,.1-.03,.14s-.03,.1-.05,.14c0,.02-.02,.05-.03,.07,0,.01,0,.02-.01,.03,.01-.03,0,0,0,.02-.04,.09-.09,.18-.14,.26-.03,.04-.06,.08-.09,.12,.02-.02,0,0,0,0,0,0-.01,.02-.02,.03-.02,.02-.03,.04-.05,.06-.03,.04-.07,.07-.1,.1-.02,.02-.03,.03-.05,.05,0,0-.02,.02-.03,.02,0,0,0,0-.01,.01-.02,.01,.01,0,0,0-.08,.06-.16,.11-.24,.15-.01,0-.02,.01-.03,.02,0,0-.01,0-.02,0-.01,0,.02,0,0,0-.02,0-.05,.02-.07,.03-.05,.02-.09,.03-.14,.04-.02,0-.04,0-.07,.01-.01,0-.02,0-.03,0,.02,0-.02,0-.02,0-.05,0-.1,0-.16,0s-.11,0-.16-.01c.02,0-.02,0-.02,0-.01,0-.03,0-.04,0-.03,0-.06-.01-.09-.02-.06-.01-.11-.03-.17-.05-.06-.02-.11-.04-.16-.07-.05-.02-.1-.05-.14-.08-.02-.01-.04-.02-.06-.04-.01,0-.02-.01-.03-.02,0,0,0,0-.01,0,0,0,0,0,0,0-.03-.03-.07-.06-.1-.09-.04-.04-.05-.05-.07-.09-.05-.07-.07-.12-.09-.2-.02-.07-.02-.13-.02-.22,0-.08,.02-.15,.04-.23,.12-.41,.4-.78,.68-1.09,.37-.41,.78-.79,1.2-1.16s.84-.7,1.26-1.05c.31-.25,.62-.5,.89-.79,.02-.02,.04-.05,.06-.07,0-.01,.02-.02,.03-.03,.01-.02,.05-.07,.03-.03-.03,.04,.01-.02,.02-.03,.05-.08,.01-.19-.06-.23-.09-.05-.18-.01-.23,.06,0,.01-.02,.02-.02,.04,0,0,0,.01-.01,.02-.02,.03,.03-.04,0,0s-.04,.05-.07,.08c-.05,.06-.11,.12-.17,.18-.15,.15-.3,.29-.46,.44-.4,.37-.81,.73-1.21,1.09-.42,.39-.84,.79-1.22,1.22-.31,.36-.63,.74-.81,1.19-.14,.33-.16,.71,.07,1,.13,.16,.31,.28,.5,.36,.22,.1,.46,.16,.71,.16,.43,0,.83-.21,1.11-.53s.46-.74,.51-1.16c0-.02,0-.05,0-.07,0,.05,0-.02,0-.04s0-.03,0-.04c0-.05,0-.1,0-.15,0-.11-.01-.22-.04-.33-.04-.2-.11-.39-.23-.56-.01-.02-.03-.04-.04-.06-.02-.02-.07-.08-.02-.03-.02-.02-.03-.04-.05-.06-.03-.04-.06-.07-.1-.11-.08-.08-.18-.15-.29-.21-.06-.03-.13-.06-.19-.09-.03-.01,.02,.01,.02,.01-.02,0-.04-.02-.06-.02-.01,0-.03-.01-.04-.02-.03-.01-.06-.02-.09-.03-.14-.04-.28-.06-.43-.07s-.3,0-.45,.01l.23,.3c.19-.69,.51-1.35,.66-2.05,.02-.09-.03-.18-.12-.2s-.18,.03-.2,.12c-.02,.06,0,.11,0,.17,0,.04-.01,.08-.03,.12-.03,.1-.07,.19-.11,.28-.08,.18-.17,.35-.26,.51-.02,.03,.03,.06,.05,.03h0Z" />
</svg>